<svg width="1363" height="163" viewBox="0 0 1363 163" fill="none" xmlns="http://www.w3.org/2000/svg">
<path d="M0 15C0 6.71573 6.71573 0 15 0H37V163H15C6.71573 163 0 156.284 0 148V15Z" fill="#424242"/>
<rect width="1097" height="163" transform="translate(37)" fill="#F0F0F0"/>
<path d="M101.906 53.9219L94.3945 51.2383V48.0859L104.602 52.375V54.6367L101.906 53.9219ZM94.3945 56.1719L101.918 53.4297L104.602 52.7852V55.0352L94.3945 59.3242V56.1719ZM119.543 54.918H115.195V52.1758H119.543C120.215 52.1758 120.762 52.0664 121.184 51.8477C121.605 51.6211 121.914 51.3086 122.109 50.9102C122.305 50.5117 122.402 50.0625 122.402 49.5625C122.402 49.0547 122.305 48.582 122.109 48.1445C121.914 47.707 121.605 47.3555 121.184 47.0898C120.762 46.8242 120.215 46.6914 119.543 46.6914H116.414V61H112.898V43.9375H119.543C120.879 43.9375 122.023 44.1797 122.977 44.6641C123.938 45.1406 124.672 45.8008 125.18 46.6445C125.688 47.4883 125.941 48.4531 125.941 49.5391C125.941 50.6406 125.688 51.5938 125.18 52.3984C124.672 53.2031 123.938 53.8242 122.977 54.2617C122.023 54.6992 120.879 54.918 119.543 54.918ZM138.258 55.3398H141.762C141.691 56.4883 141.375 57.5078 140.812 58.3984C140.258 59.2891 139.48 59.9844 138.48 60.4844C137.488 60.9844 136.293 61.2344 134.895 61.2344C133.801 61.2344 132.82 61.0469 131.953 60.6719C131.086 60.2891 130.344 59.7422 129.727 59.0312C129.117 58.3203 128.652 57.4609 128.332 56.4531C128.012 55.4453 127.852 54.3164 127.852 53.0664V51.8828C127.852 50.6328 128.016 49.5039 128.344 48.4961C128.68 47.4805 129.156 46.6172 129.773 45.9062C130.398 45.1953 131.145 44.6484 132.012 44.2656C132.879 43.8828 133.848 43.6914 134.918 43.6914C136.34 43.6914 137.539 43.9492 138.516 44.4648C139.5 44.9805 140.262 45.6914 140.801 46.5977C141.348 47.5039 141.676 48.5352 141.785 49.6914H138.27C138.23 49.0039 138.094 48.4219 137.859 47.9453C137.625 47.4609 137.27 47.0977 136.793 46.8555C136.324 46.6055 135.699 46.4805 134.918 46.4805C134.332 46.4805 133.82 46.5898 133.383 46.8086C132.945 47.0273 132.578 47.3594 132.281 47.8047C131.984 48.25 131.762 48.8125 131.613 49.4922C131.473 50.1641 131.402 50.9531 131.402 51.8594V53.0664C131.402 53.9492 131.469 54.7266 131.602 55.3984C131.734 56.0625 131.938 56.625 132.211 57.0859C132.492 57.5391 132.852 57.8828 133.289 58.1172C133.734 58.3438 134.27 58.457 134.895 58.457C135.629 58.457 136.234 58.3398 136.711 58.1055C137.188 57.8711 137.551 57.5234 137.801 57.0625C138.059 56.6016 138.211 56.0273 138.258 55.3398ZM150.75 53.5117H146.367L146.344 51.0977H150.023C150.672 51.0977 151.203 51.0156 151.617 50.8516C152.031 50.6797 152.34 50.4336 152.543 50.1133C152.754 49.7852 152.859 49.3867 152.859 48.918C152.859 48.3867 152.758 47.957 152.555 47.6289C152.359 47.3008 152.051 47.0625 151.629 46.9141C151.215 46.7656 150.68 46.6914 150.023 46.6914H147.586V61H144.07V43.9375H150.023C151.016 43.9375 151.902 44.0312 152.684 44.2188C153.473 44.4062 154.141 44.6914 154.688 45.0742C155.234 45.457 155.652 45.9414 155.941 46.5273C156.23 47.1055 156.375 47.793 156.375 48.5898C156.375 49.293 156.215 49.9414 155.895 50.5352C155.582 51.1289 155.086 51.6133 154.406 51.9883C153.734 52.3633 152.855 52.5703 151.77 52.6094L150.75 53.5117ZM150.598 61H145.406L146.777 58.2578H150.598C151.215 58.2578 151.719 58.1602 152.109 57.9648C152.5 57.7617 152.789 57.4883 152.977 57.1445C153.164 56.8008 153.258 56.4062 153.258 55.9609C153.258 55.4609 153.172 55.0273 153 54.6602C152.836 54.293 152.57 54.0117 152.203 53.8164C151.836 53.6133 151.352 53.5117 150.75 53.5117H147.363L147.387 51.0977H151.605L152.414 52.0469C153.453 52.0312 154.289 52.2148 154.922 52.5977C155.562 52.9727 156.027 53.4609 156.316 54.0625C156.613 54.6641 156.762 55.3086 156.762 55.9961C156.762 57.0898 156.523 58.0117 156.047 58.7617C155.57 59.5039 154.871 60.0625 153.949 60.4375C153.035 60.8125 151.918 61 150.598 61ZM166.688 57.9648V48.3203H170.062V61H166.887L166.688 57.9648ZM167.062 55.3633L168.059 55.3398C168.059 56.1836 167.961 56.9688 167.766 57.6953C167.57 58.4141 167.277 59.0391 166.887 59.5703C166.496 60.0938 166.004 60.5039 165.41 60.8008C164.816 61.0898 164.117 61.2344 163.312 61.2344C162.695 61.2344 162.125 61.1484 161.602 60.9766C161.086 60.7969 160.641 60.5195 160.266 60.1445C159.898 59.7617 159.609 59.2734 159.398 58.6797C159.195 58.0781 159.094 57.3555 159.094 56.5117V48.3203H162.469V56.5352C162.469 56.9102 162.512 57.2266 162.598 57.4844C162.691 57.7422 162.82 57.9531 162.984 58.1172C163.148 58.2812 163.34 58.3984 163.559 58.4688C163.785 58.5391 164.035 58.5742 164.309 58.5742C165.004 58.5742 165.551 58.4336 165.949 58.1523C166.355 57.8711 166.641 57.4883 166.805 57.0039C166.977 56.5117 167.062 55.9648 167.062 55.3633ZM180.129 58.2344V43H183.527V61H180.469L180.129 58.2344ZM172.113 54.8125V54.5664C172.113 53.5977 172.223 52.7188 172.441 51.9297C172.66 51.1328 172.98 50.4492 173.402 49.8789C173.824 49.3086 174.344 48.8672 174.961 48.5547C175.578 48.2422 176.281 48.0859 177.07 48.0859C177.812 48.0859 178.461 48.2422 179.016 48.5547C179.578 48.8672 180.055 49.3125 180.445 49.8906C180.844 50.4609 181.164 51.1367 181.406 51.918C181.648 52.6914 181.824 53.5391 181.934 54.4609V55C181.824 55.8828 181.648 56.7031 181.406 57.4609C181.164 58.2188 180.844 58.8828 180.445 59.4531C180.055 60.0156 179.578 60.4531 179.016 60.7656C178.453 61.0781 177.797 61.2344 177.047 61.2344C176.258 61.2344 175.555 61.0742 174.938 60.7539C174.328 60.4336 173.812 59.9844 173.391 59.4062C172.977 58.8281 172.66 58.1484 172.441 57.3672C172.223 56.5859 172.113 55.7344 172.113 54.8125ZM175.488 54.5664V54.8125C175.488 55.3359 175.527 55.8242 175.605 56.2773C175.691 56.7305 175.828 57.1328 176.016 57.4844C176.211 57.8281 176.461 58.0977 176.766 58.293C177.078 58.4805 177.457 58.5742 177.902 58.5742C178.48 58.5742 178.957 58.4453 179.332 58.1875C179.707 57.9219 179.992 57.5586 180.188 57.0977C180.391 56.6367 180.508 56.1055 180.539 55.5039V53.9688C180.516 53.4766 180.445 53.0352 180.328 52.6445C180.219 52.2461 180.055 51.9062 179.836 51.625C179.625 51.3438 179.359 51.125 179.039 50.9688C178.727 50.8125 178.355 50.7344 177.926 50.7344C177.488 50.7344 177.113 50.8359 176.801 51.0391C176.488 51.2344 176.234 51.5039 176.039 51.8477C175.852 52.1914 175.711 52.5977 175.617 53.0664C175.531 53.5273 175.488 54.0273 175.488 54.5664ZM193.652 58.2344V43H197.051V61H193.992L193.652 58.2344ZM185.637 54.8125V54.5664C185.637 53.5977 185.746 52.7188 185.965 51.9297C186.184 51.1328 186.504 50.4492 186.926 49.8789C187.348 49.3086 187.867 48.8672 188.484 48.5547C189.102 48.2422 189.805 48.0859 190.594 48.0859C191.336 48.0859 191.984 48.2422 192.539 48.5547C193.102 48.8672 193.578 49.3125 193.969 49.8906C194.367 50.4609 194.688 51.1367 194.93 51.918C195.172 52.6914 195.348 53.5391 195.457 54.4609V55C195.348 55.8828 195.172 56.7031 194.93 57.4609C194.688 58.2188 194.367 58.8828 193.969 59.4531C193.578 60.0156 193.102 60.4531 192.539 60.7656C191.977 61.0781 191.32 61.2344 190.57 61.2344C189.781 61.2344 189.078 61.0742 188.461 60.7539C187.852 60.4336 187.336 59.9844 186.914 59.4062C186.5 58.8281 186.184 58.1484 185.965 57.3672C185.746 56.5859 185.637 55.7344 185.637 54.8125ZM189.012 54.5664V54.8125C189.012 55.3359 189.051 55.8242 189.129 56.2773C189.215 56.7305 189.352 57.1328 189.539 57.4844C189.734 57.8281 189.984 58.0977 190.289 58.293C190.602 58.4805 190.98 58.5742 191.426 58.5742C192.004 58.5742 192.48 58.4453 192.855 58.1875C193.23 57.9219 193.516 57.5586 193.711 57.0977C193.914 56.6367 194.031 56.1055 194.062 55.5039V53.9688C194.039 53.4766 193.969 53.0352 193.852 52.6445C193.742 52.2461 193.578 51.9062 193.359 51.625C193.148 51.3438 192.883 51.125 192.562 50.9688C192.25 50.8125 191.879 50.7344 191.449 50.7344C191.012 50.7344 190.637 50.8359 190.324 51.0391C190.012 51.2344 189.758 51.5039 189.562 51.8477C189.375 52.1914 189.234 52.5977 189.141 53.0664C189.055 53.5273 189.012 54.0273 189.012 54.5664ZM203.449 59.5703L206.812 48.3203H210.434L205.336 62.9102C205.227 63.2305 205.078 63.5742 204.891 63.9414C204.711 64.3086 204.465 64.6562 204.152 64.9844C203.848 65.3203 203.461 65.5938 202.992 65.8047C202.531 66.0156 201.965 66.1211 201.293 66.1211C200.973 66.1211 200.711 66.1016 200.508 66.0625C200.305 66.0234 200.062 65.9688 199.781 65.8984V63.4258C199.867 63.4258 199.957 63.4258 200.051 63.4258C200.145 63.4336 200.234 63.4375 200.32 63.4375C200.766 63.4375 201.129 63.3867 201.41 63.2852C201.691 63.1836 201.918 63.0273 202.09 62.8164C202.262 62.6133 202.398 62.3477 202.5 62.0195L203.449 59.5703ZM202.043 48.3203L204.797 57.5078L205.277 61.082L202.98 61.3281L198.422 48.3203H202.043Z" fill="#888888"/>
<path d="M114.117 84.875H122.344V107.164C122.344 109.82 121.789 112.07 120.68 113.914C119.57 115.742 118.016 117.125 116.016 118.062C114.016 119 111.664 119.469 108.961 119.469C106.289 119.469 103.938 119 101.906 118.062C99.8906 117.125 98.3125 115.742 97.1719 113.914C96.0469 112.07 95.4844 109.82 95.4844 107.164V84.875H103.734V107.164C103.734 108.57 103.938 109.719 104.344 110.609C104.75 111.484 105.344 112.125 106.125 112.531C106.906 112.938 107.852 113.141 108.961 113.141C110.086 113.141 111.031 112.938 111.797 112.531C112.562 112.125 113.141 111.484 113.531 110.609C113.922 109.719 114.117 108.57 114.117 107.164V84.875ZM134.906 99.0547V119H127.008V93.6406H134.414L134.906 99.0547ZM133.969 105.453L132.117 105.5C132.117 103.562 132.352 101.836 132.82 100.32C133.289 98.7891 133.953 97.4922 134.812 96.4297C135.672 95.3672 136.695 94.5625 137.883 94.0156C139.086 93.4531 140.422 93.1719 141.891 93.1719C143.062 93.1719 144.133 93.3438 145.102 93.6875C146.086 94.0312 146.93 94.5859 147.633 95.3516C148.352 96.1172 148.898 97.1328 149.273 98.3984C149.664 99.6484 149.859 101.195 149.859 103.039V119H141.914V103.016C141.914 102 141.773 101.227 141.492 100.695C141.211 100.148 140.805 99.7734 140.273 99.5703C139.742 99.3672 139.094 99.2656 138.328 99.2656C137.516 99.2656 136.828 99.4219 136.266 99.7344C135.703 100.047 135.25 100.484 134.906 101.047C134.578 101.594 134.336 102.242 134.18 102.992C134.039 103.742 133.969 104.562 133.969 105.453ZM162.586 93.6406V119H154.664V93.6406H162.586ZM154.195 87.1016C154.195 85.9766 154.602 85.0547 155.414 84.3359C156.227 83.6172 157.281 83.2578 158.578 83.2578C159.875 83.2578 160.93 83.6172 161.742 84.3359C162.555 85.0547 162.961 85.9766 162.961 87.1016C162.961 88.2266 162.555 89.1484 161.742 89.8672C160.93 90.5859 159.875 90.9453 158.578 90.9453C157.281 90.9453 156.227 90.5859 155.414 89.8672C154.602 89.1484 154.195 88.2266 154.195 87.1016ZM180.82 93.6406V99.125H165.539V93.6406H180.82ZM168.75 87.3359H176.648V110.727C176.648 111.398 176.727 111.922 176.883 112.297C177.039 112.656 177.305 112.914 177.68 113.07C178.07 113.211 178.586 113.281 179.227 113.281C179.68 113.281 180.055 113.273 180.352 113.258C180.648 113.227 180.93 113.188 181.195 113.141V118.789C180.523 119.008 179.82 119.172 179.086 119.281C178.352 119.406 177.57 119.469 176.742 119.469C175.055 119.469 173.609 119.203 172.406 118.672C171.219 118.141 170.312 117.305 169.688 116.164C169.062 115.023 168.75 113.539 168.75 111.711V87.3359ZM211.406 84.875V119H203.18V84.875H211.406ZM221.672 84.875V91.2266H193.148V84.875H221.672ZM234.961 119.469C232.898 119.469 231.055 119.148 229.43 118.508C227.805 117.852 226.43 116.953 225.305 115.812C224.195 114.672 223.344 113.359 222.75 111.875C222.172 110.391 221.883 108.82 221.883 107.164V106.273C221.883 104.414 222.141 102.695 222.656 101.117C223.172 99.5234 223.938 98.1328 224.953 96.9453C225.969 95.7578 227.242 94.8359 228.773 94.1797C230.305 93.5078 232.086 93.1719 234.117 93.1719C235.914 93.1719 237.523 93.4609 238.945 94.0391C240.367 94.6172 241.57 95.4453 242.555 96.5234C243.555 97.6016 244.312 98.9062 244.828 100.438C245.359 101.969 245.625 103.688 245.625 105.594V108.805H224.906V103.859H237.914V103.25C237.93 102.406 237.781 101.688 237.469 101.094C237.172 100.5 236.734 100.047 236.156 99.7344C235.578 99.4219 234.875 99.2656 234.047 99.2656C233.188 99.2656 232.477 99.4531 231.914 99.8281C231.367 100.203 230.938 100.719 230.625 101.375C230.328 102.016 230.117 102.758 229.992 103.602C229.867 104.445 229.805 105.336 229.805 106.273V107.164C229.805 108.102 229.93 108.953 230.18 109.719C230.445 110.484 230.82 111.141 231.305 111.688C231.805 112.219 232.398 112.633 233.086 112.93C233.789 113.227 234.586 113.375 235.477 113.375C236.555 113.375 237.617 113.172 238.664 112.766C239.711 112.359 240.609 111.688 241.359 110.75L244.945 115.016C244.43 115.75 243.695 116.461 242.742 117.148C241.805 117.836 240.68 118.398 239.367 118.836C238.055 119.258 236.586 119.469 234.961 119.469ZM262.125 111.875C262.125 111.438 261.977 111.062 261.68 110.75C261.398 110.422 260.898 110.125 260.18 109.859C259.461 109.578 258.453 109.297 257.156 109.016C255.922 108.75 254.758 108.398 253.664 107.961C252.586 107.523 251.641 106.992 250.828 106.367C250.016 105.742 249.375 105 248.906 104.141C248.453 103.281 248.227 102.297 248.227 101.188C248.227 100.109 248.453 99.0938 248.906 98.1406C249.375 97.1719 250.055 96.3203 250.945 95.5859C251.852 94.8359 252.953 94.25 254.25 93.8281C255.547 93.3906 257.023 93.1719 258.68 93.1719C260.961 93.1719 262.93 93.5234 264.586 94.2266C266.242 94.9141 267.516 95.8828 268.406 97.1328C269.312 98.3672 269.766 99.7969 269.766 101.422H261.867C261.867 100.781 261.758 100.234 261.539 99.7812C261.336 99.3281 261 98.9844 260.531 98.75C260.062 98.5 259.438 98.375 258.656 98.375C258.109 98.375 257.609 98.4766 257.156 98.6797C256.719 98.8828 256.367 99.1641 256.102 99.5234C255.836 99.8828 255.703 100.305 255.703 100.789C255.703 101.133 255.781 101.445 255.938 101.727C256.109 101.992 256.367 102.242 256.711 102.477C257.055 102.695 257.492 102.898 258.023 103.086C258.555 103.258 259.195 103.414 259.945 103.555C261.648 103.867 263.242 104.312 264.727 104.891C266.211 105.469 267.414 106.289 268.336 107.352C269.273 108.414 269.742 109.844 269.742 111.641C269.742 112.766 269.484 113.805 268.969 114.758C268.453 115.695 267.711 116.523 266.742 117.242C265.773 117.945 264.609 118.492 263.25 118.883C261.891 119.273 260.359 119.469 258.656 119.469C256.234 119.469 254.188 119.039 252.516 118.18C250.844 117.305 249.578 116.211 248.719 114.898C247.875 113.57 247.453 112.227 247.453 110.867H254.812C254.844 111.648 255.031 112.289 255.375 112.789C255.734 113.289 256.211 113.656 256.805 113.891C257.398 114.125 258.086 114.242 258.867 114.242C259.586 114.242 260.18 114.141 260.648 113.938C261.133 113.734 261.5 113.461 261.75 113.117C262 112.758 262.125 112.344 262.125 111.875ZM286.805 93.6406V99.125H271.523V93.6406H286.805ZM274.734 87.3359H282.633V110.727C282.633 111.398 282.711 111.922 282.867 112.297C283.023 112.656 283.289 112.914 283.664 113.07C284.055 113.211 284.57 113.281 285.211 113.281C285.664 113.281 286.039 113.273 286.336 113.258C286.633 113.227 286.914 113.188 287.18 113.141V118.789C286.508 119.008 285.805 119.172 285.07 119.281C284.336 119.406 283.555 119.469 282.727 119.469C281.039 119.469 279.594 119.203 278.391 118.672C277.203 118.141 276.297 117.305 275.672 116.164C275.047 115.023 274.734 113.539 274.734 111.711V87.3359ZM298.289 93.6406V119H290.367V93.6406H298.289ZM289.898 87.1016C289.898 85.9766 290.305 85.0547 291.117 84.3359C291.93 83.6172 292.984 83.2578 294.281 83.2578C295.578 83.2578 296.633 83.6172 297.445 84.3359C298.258 85.0547 298.664 85.9766 298.664 87.1016C298.664 88.2266 298.258 89.1484 297.445 89.8672C296.633 90.5859 295.578 90.9453 294.281 90.9453C292.984 90.9453 291.93 90.5859 291.117 89.8672C290.305 89.1484 289.898 88.2266 289.898 87.1016ZM310.922 99.0547V119H303.023V93.6406H310.43L310.922 99.0547ZM309.984 105.453L308.133 105.5C308.133 103.562 308.367 101.836 308.836 100.32C309.305 98.7891 309.969 97.4922 310.828 96.4297C311.688 95.3672 312.711 94.5625 313.898 94.0156C315.102 93.4531 316.438 93.1719 317.906 93.1719C319.078 93.1719 320.148 93.3438 321.117 93.6875C322.102 94.0312 322.945 94.5859 323.648 95.3516C324.367 96.1172 324.914 97.1328 325.289 98.3984C325.68 99.6484 325.875 101.195 325.875 103.039V119H317.93V103.016C317.93 102 317.789 101.227 317.508 100.695C317.227 100.148 316.82 99.7734 316.289 99.5703C315.758 99.3672 315.109 99.2656 314.344 99.2656C313.531 99.2656 312.844 99.4219 312.281 99.7344C311.719 100.047 311.266 100.484 310.922 101.047C310.594 101.594 310.352 102.242 310.195 102.992C310.055 103.742 309.984 104.562 309.984 105.453ZM346.195 93.6406H353.367V118.016C353.367 120.359 352.828 122.344 351.75 123.969C350.672 125.609 349.164 126.852 347.227 127.695C345.305 128.555 343.055 128.984 340.477 128.984C339.336 128.984 338.172 128.836 336.984 128.539C335.797 128.258 334.688 127.836 333.656 127.273C332.625 126.711 331.758 126.016 331.055 125.188L334.359 120.547C335 121.266 335.805 121.875 336.773 122.375C337.742 122.891 338.883 123.148 340.195 123.148C341.336 123.148 342.289 122.945 343.055 122.539C343.836 122.133 344.43 121.539 344.836 120.758C345.242 119.992 345.445 119.062 345.445 117.969V99.6406L346.195 93.6406ZM329.344 106.625V106.133C329.344 104.211 329.578 102.461 330.047 100.883C330.531 99.2891 331.219 97.9219 332.109 96.7812C333.016 95.625 334.109 94.7344 335.391 94.1094C336.672 93.4844 338.117 93.1719 339.727 93.1719C341.461 93.1719 342.883 93.5078 343.992 94.1797C345.117 94.8359 346.016 95.7578 346.688 96.9453C347.375 98.1328 347.906 99.5234 348.281 101.117C348.672 102.695 349 104.398 349.266 106.227V106.812C349 108.531 348.633 110.156 348.164 111.688C347.711 113.203 347.117 114.547 346.383 115.719C345.648 116.891 344.727 117.812 343.617 118.484C342.523 119.141 341.211 119.469 339.68 119.469C338.086 119.469 336.648 119.148 335.367 118.508C334.102 117.867 333.016 116.969 332.109 115.812C331.219 114.656 330.531 113.297 330.047 111.734C329.578 110.172 329.344 108.469 329.344 106.625ZM337.242 106.133V106.625C337.242 107.578 337.328 108.461 337.5 109.273C337.688 110.086 337.969 110.805 338.344 111.43C338.719 112.039 339.18 112.516 339.727 112.859C340.289 113.203 340.945 113.375 341.695 113.375C342.836 113.375 343.758 113.133 344.461 112.648C345.164 112.164 345.672 111.477 345.984 110.586C346.297 109.695 346.43 108.648 346.383 107.445V105.594C346.414 104.562 346.344 103.656 346.172 102.875C346 102.078 345.727 101.414 345.352 100.883C344.992 100.352 344.508 99.9531 343.898 99.6875C343.305 99.4062 342.586 99.2656 341.742 99.2656C341.008 99.2656 340.359 99.4375 339.797 99.7812C339.234 100.125 338.766 100.609 338.391 101.234C338.016 101.844 337.727 102.57 337.523 103.414C337.336 104.242 337.242 105.148 337.242 106.133Z" fill="black"/>
<path d="M1134 0H1348C1356.28 0 1363 6.71573 1363 15V148C1363 156.284 1356.28 163 1348 163H1134V0Z" fill="#3A76A8"/>
<path d="M1210.62 43.625H1286.38V119.375H1210.62V43.625Z" fill="white" fill-opacity="0.01"/>
<path d="M1276.91 72.0312V105.172C1276.91 107.787 1274.79 109.906 1272.17 109.906H1224.83C1222.21 109.906 1220.09 107.787 1220.09 105.172V57.8281C1220.09 55.2134 1222.21 53.0938 1224.83 53.0938H1261.12" stroke="white" stroke-width="7.24" stroke-linecap="round" stroke-linejoin="round"/>
<path d="M1232.72 75.1875L1248.5 87.8125L1276.91 53.0938" stroke="white" stroke-width="7.24" stroke-linecap="round" stroke-linejoin="round"/>
</svg>
