<svg width="1363" height="163" viewBox="0 0 1363 163" fill="none" xmlns="http://www.w3.org/2000/svg">
<path d="M0 15C0 6.71573 6.71573 0 15 0H37V163H15C6.71573 163 0 156.284 0 148V15Z" fill="#424242"/>
<rect width="1097" height="163" transform="translate(37)" fill="#F0F0F0"/>
<path d="M101.906 53.9219L94.3945 51.2383V48.0859L104.602 52.375V54.6367L101.906 53.9219ZM94.3945 56.1719L101.918 53.4297L104.602 52.7852V55.0352L94.3945 59.3242V56.1719ZM119.543 54.918H115.195V52.1758H119.543C120.215 52.1758 120.762 52.0664 121.184 51.8477C121.605 51.6211 121.914 51.3086 122.109 50.9102C122.305 50.5117 122.402 50.0625 122.402 49.5625C122.402 49.0547 122.305 48.582 122.109 48.1445C121.914 47.707 121.605 47.3555 121.184 47.0898C120.762 46.8242 120.215 46.6914 119.543 46.6914H116.414V61H112.898V43.9375H119.543C120.879 43.9375 122.023 44.1797 122.977 44.6641C123.938 45.1406 124.672 45.8008 125.18 46.6445C125.688 47.4883 125.941 48.4531 125.941 49.5391C125.941 50.6406 125.688 51.5938 125.18 52.3984C124.672 53.2031 123.938 53.8242 122.977 54.2617C122.023 54.6992 120.879 54.918 119.543 54.918ZM138.258 55.3398H141.762C141.691 56.4883 141.375 57.5078 140.812 58.3984C140.258 59.2891 139.48 59.9844 138.48 60.4844C137.488 60.9844 136.293 61.2344 134.895 61.2344C133.801 61.2344 132.82 61.0469 131.953 60.6719C131.086 60.2891 130.344 59.7422 129.727 59.0312C129.117 58.3203 128.652 57.4609 128.332 56.4531C128.012 55.4453 127.852 54.3164 127.852 53.0664V51.8828C127.852 50.6328 128.016 49.5039 128.344 48.4961C128.68 47.4805 129.156 46.6172 129.773 45.9062C130.398 45.1953 131.145 44.6484 132.012 44.2656C132.879 43.8828 133.848 43.6914 134.918 43.6914C136.34 43.6914 137.539 43.9492 138.516 44.4648C139.5 44.9805 140.262 45.6914 140.801 46.5977C141.348 47.5039 141.676 48.5352 141.785 49.6914H138.27C138.23 49.0039 138.094 48.4219 137.859 47.9453C137.625 47.4609 137.27 47.0977 136.793 46.8555C136.324 46.6055 135.699 46.4805 134.918 46.4805C134.332 46.4805 133.82 46.5898 133.383 46.8086C132.945 47.0273 132.578 47.3594 132.281 47.8047C131.984 48.25 131.762 48.8125 131.613 49.4922C131.473 50.1641 131.402 50.9531 131.402 51.8594V53.0664C131.402 53.9492 131.469 54.7266 131.602 55.3984C131.734 56.0625 131.938 56.625 132.211 57.0859C132.492 57.5391 132.852 57.8828 133.289 58.1172C133.734 58.3438 134.27 58.457 134.895 58.457C135.629 58.457 136.234 58.3398 136.711 58.1055C137.188 57.8711 137.551 57.5234 137.801 57.0625C138.059 56.6016 138.211 56.0273 138.258 55.3398ZM150.75 53.5117H146.367L146.344 51.0977H150.023C150.672 51.0977 151.203 51.0156 151.617 50.8516C152.031 50.6797 152.34 50.4336 152.543 50.1133C152.754 49.7852 152.859 49.3867 152.859 48.918C152.859 48.3867 152.758 47.957 152.555 47.6289C152.359 47.3008 152.051 47.0625 151.629 46.9141C151.215 46.7656 150.68 46.6914 150.023 46.6914H147.586V61H144.07V43.9375H150.023C151.016 43.9375 151.902 44.0312 152.684 44.2188C153.473 44.4062 154.141 44.6914 154.688 45.0742C155.234 45.457 155.652 45.9414 155.941 46.5273C156.23 47.1055 156.375 47.793 156.375 48.5898C156.375 49.293 156.215 49.9414 155.895 50.5352C155.582 51.1289 155.086 51.6133 154.406 51.9883C153.734 52.3633 152.855 52.5703 151.77 52.6094L150.75 53.5117ZM150.598 61H145.406L146.777 58.2578H150.598C151.215 58.2578 151.719 58.1602 152.109 57.9648C152.5 57.7617 152.789 57.4883 152.977 57.1445C153.164 56.8008 153.258 56.4062 153.258 55.9609C153.258 55.4609 153.172 55.0273 153 54.6602C152.836 54.293 152.57 54.0117 152.203 53.8164C151.836 53.6133 151.352 53.5117 150.75 53.5117H147.363L147.387 51.0977H151.605L152.414 52.0469C153.453 52.0312 154.289 52.2148 154.922 52.5977C155.562 52.9727 156.027 53.4609 156.316 54.0625C156.613 54.6641 156.762 55.3086 156.762 55.9961C156.762 57.0898 156.523 58.0117 156.047 58.7617C155.57 59.5039 154.871 60.0625 153.949 60.4375C153.035 60.8125 151.918 61 150.598 61ZM166.688 57.9648V48.3203H170.062V61H166.887L166.688 57.9648ZM167.062 55.3633L168.059 55.3398C168.059 56.1836 167.961 56.9688 167.766 57.6953C167.57 58.4141 167.277 59.0391 166.887 59.5703C166.496 60.0938 166.004 60.5039 165.41 60.8008C164.816 61.0898 164.117 61.2344 163.312 61.2344C162.695 61.2344 162.125 61.1484 161.602 60.9766C161.086 60.7969 160.641 60.5195 160.266 60.1445C159.898 59.7617 159.609 59.2734 159.398 58.6797C159.195 58.0781 159.094 57.3555 159.094 56.5117V48.3203H162.469V56.5352C162.469 56.9102 162.512 57.2266 162.598 57.4844C162.691 57.7422 162.82 57.9531 162.984 58.1172C163.148 58.2812 163.34 58.3984 163.559 58.4688C163.785 58.5391 164.035 58.5742 164.309 58.5742C165.004 58.5742 165.551 58.4336 165.949 58.1523C166.355 57.8711 166.641 57.4883 166.805 57.0039C166.977 56.5117 167.062 55.9648 167.062 55.3633ZM180.129 58.2344V43H183.527V61H180.469L180.129 58.2344ZM172.113 54.8125V54.5664C172.113 53.5977 172.223 52.7188 172.441 51.9297C172.66 51.1328 172.98 50.4492 173.402 49.8789C173.824 49.3086 174.344 48.8672 174.961 48.5547C175.578 48.2422 176.281 48.0859 177.07 48.0859C177.812 48.0859 178.461 48.2422 179.016 48.5547C179.578 48.8672 180.055 49.3125 180.445 49.8906C180.844 50.4609 181.164 51.1367 181.406 51.918C181.648 52.6914 181.824 53.5391 181.934 54.4609V55C181.824 55.8828 181.648 56.7031 181.406 57.4609C181.164 58.2188 180.844 58.8828 180.445 59.4531C180.055 60.0156 179.578 60.4531 179.016 60.7656C178.453 61.0781 177.797 61.2344 177.047 61.2344C176.258 61.2344 175.555 61.0742 174.938 60.7539C174.328 60.4336 173.812 59.9844 173.391 59.4062C172.977 58.8281 172.66 58.1484 172.441 57.3672C172.223 56.5859 172.113 55.7344 172.113 54.8125ZM175.488 54.5664V54.8125C175.488 55.3359 175.527 55.8242 175.605 56.2773C175.691 56.7305 175.828 57.1328 176.016 57.4844C176.211 57.8281 176.461 58.0977 176.766 58.293C177.078 58.4805 177.457 58.5742 177.902 58.5742C178.48 58.5742 178.957 58.4453 179.332 58.1875C179.707 57.9219 179.992 57.5586 180.188 57.0977C180.391 56.6367 180.508 56.1055 180.539 55.5039V53.9688C180.516 53.4766 180.445 53.0352 180.328 52.6445C180.219 52.2461 180.055 51.9062 179.836 51.625C179.625 51.3438 179.359 51.125 179.039 50.9688C178.727 50.8125 178.355 50.7344 177.926 50.7344C177.488 50.7344 177.113 50.8359 176.801 51.0391C176.488 51.2344 176.234 51.5039 176.039 51.8477C175.852 52.1914 175.711 52.5977 175.617 53.0664C175.531 53.5273 175.488 54.0273 175.488 54.5664ZM193.652 58.2344V43H197.051V61H193.992L193.652 58.2344ZM185.637 54.8125V54.5664C185.637 53.5977 185.746 52.7188 185.965 51.9297C186.184 51.1328 186.504 50.4492 186.926 49.8789C187.348 49.3086 187.867 48.8672 188.484 48.5547C189.102 48.2422 189.805 48.0859 190.594 48.0859C191.336 48.0859 191.984 48.2422 192.539 48.5547C193.102 48.8672 193.578 49.3125 193.969 49.8906C194.367 50.4609 194.688 51.1367 194.93 51.918C195.172 52.6914 195.348 53.5391 195.457 54.4609V55C195.348 55.8828 195.172 56.7031 194.93 57.4609C194.688 58.2188 194.367 58.8828 193.969 59.4531C193.578 60.0156 193.102 60.4531 192.539 60.7656C191.977 61.0781 191.32 61.2344 190.57 61.2344C189.781 61.2344 189.078 61.0742 188.461 60.7539C187.852 60.4336 187.336 59.9844 186.914 59.4062C186.5 58.8281 186.184 58.1484 185.965 57.3672C185.746 56.5859 185.637 55.7344 185.637 54.8125ZM189.012 54.5664V54.8125C189.012 55.3359 189.051 55.8242 189.129 56.2773C189.215 56.7305 189.352 57.1328 189.539 57.4844C189.734 57.8281 189.984 58.0977 190.289 58.293C190.602 58.4805 190.98 58.5742 191.426 58.5742C192.004 58.5742 192.48 58.4453 192.855 58.1875C193.23 57.9219 193.516 57.5586 193.711 57.0977C193.914 56.6367 194.031 56.1055 194.062 55.5039V53.9688C194.039 53.4766 193.969 53.0352 193.852 52.6445C193.742 52.2461 193.578 51.9062 193.359 51.625C193.148 51.3438 192.883 51.125 192.562 50.9688C192.25 50.8125 191.879 50.7344 191.449 50.7344C191.012 50.7344 190.637 50.8359 190.324 51.0391C190.012 51.2344 189.758 51.5039 189.562 51.8477C189.375 52.1914 189.234 52.5977 189.141 53.0664C189.055 53.5273 189.012 54.0273 189.012 54.5664ZM203.449 59.5703L206.812 48.3203H210.434L205.336 62.9102C205.227 63.2305 205.078 63.5742 204.891 63.9414C204.711 64.3086 204.465 64.6562 204.152 64.9844C203.848 65.3203 203.461 65.5938 202.992 65.8047C202.531 66.0156 201.965 66.1211 201.293 66.1211C200.973 66.1211 200.711 66.1016 200.508 66.0625C200.305 66.0234 200.062 65.9688 199.781 65.8984V63.4258C199.867 63.4258 199.957 63.4258 200.051 63.4258C200.145 63.4336 200.234 63.4375 200.32 63.4375C200.766 63.4375 201.129 63.3867 201.41 63.2852C201.691 63.1836 201.918 63.0273 202.09 62.8164C202.262 62.6133 202.398 62.3477 202.5 62.0195L203.449 59.5703ZM202.043 48.3203L204.797 57.5078L205.277 61.082L202.98 61.3281L198.422 48.3203H202.043Z" fill="#888888"/>
<path d="M114.117 84.875H122.344V107.164C122.344 109.82 121.789 112.07 120.68 113.914C119.57 115.742 118.016 117.125 116.016 118.062C114.016 119 111.664 119.469 108.961 119.469C106.289 119.469 103.938 119 101.906 118.062C99.8906 117.125 98.3125 115.742 97.1719 113.914C96.0469 112.07 95.4844 109.82 95.4844 107.164V84.875H103.734V107.164C103.734 108.57 103.938 109.719 104.344 110.609C104.75 111.484 105.344 112.125 106.125 112.531C106.906 112.938 107.852 113.141 108.961 113.141C110.086 113.141 111.031 112.938 111.797 112.531C112.562 112.125 113.141 111.484 113.531 110.609C113.922 109.719 114.117 108.57 114.117 107.164V84.875ZM136.266 84.875V119H128.062V84.875H136.266ZM172.523 84.875H180.75V107.164C180.75 109.82 180.195 112.07 179.086 113.914C177.977 115.742 176.422 117.125 174.422 118.062C172.422 119 170.07 119.469 167.367 119.469C164.695 119.469 162.344 119 160.312 118.062C158.297 117.125 156.719 115.742 155.578 113.914C154.453 112.07 153.891 109.82 153.891 107.164V84.875H162.141V107.164C162.141 108.57 162.344 109.719 162.75 110.609C163.156 111.484 163.75 112.125 164.531 112.531C165.312 112.938 166.258 113.141 167.367 113.141C168.492 113.141 169.438 112.938 170.203 112.531C170.969 112.125 171.547 111.484 171.938 110.609C172.328 109.719 172.523 108.57 172.523 107.164V84.875ZM193.078 84.875L198.656 96.2188L204.234 84.875H213.609L204.094 101.797L213.867 119H204.398L198.656 107.445L192.914 119H183.422L193.219 101.797L183.68 84.875H193.078Z" fill="black"/>
<path d="M1134 0H1348C1356.28 0 1363 6.71573 1363 15V148C1363 156.284 1356.28 163 1348 163H1134V0Z" fill="#3A76A8"/>
<path d="M1248.5 111.917C1244.51 111.917 1240.55 111.13 1236.86 109.601C1233.17 108.073 1229.82 105.832 1226.99 103.008C1221.29 97.3036 1218.08 89.567 1218.08 81.5C1218.08 73.433 1221.29 65.6964 1226.99 59.9922C1232.7 54.2879 1240.43 51.0833 1248.5 51.0833C1265.23 51.0833 1278.92 63.25 1278.92 78.4583C1278.92 83.2985 1276.99 87.9405 1273.57 91.363C1270.15 94.7856 1265.51 96.7083 1260.67 96.7083H1255.19C1254.28 96.7083 1253.67 97.3167 1253.67 98.2292C1253.67 98.5333 1253.97 98.8375 1253.97 99.1417C1255.19 100.662 1255.8 102.487 1255.8 104.312C1256.1 108.571 1252.76 111.917 1248.5 111.917ZM1248.5 57.1667C1242.05 57.1667 1235.86 59.7303 1231.29 64.2937C1226.73 68.8571 1224.17 75.0464 1224.17 81.5C1224.17 87.9536 1226.73 94.1429 1231.29 98.7063C1235.86 103.27 1242.05 105.833 1248.5 105.833C1249.41 105.833 1250.02 105.225 1250.02 104.312C1250.02 103.704 1249.72 103.4 1249.72 103.096C1248.5 101.575 1247.89 100.054 1247.89 98.2292C1247.89 93.9708 1251.24 90.625 1255.5 90.625H1260.67C1263.89 90.625 1266.99 89.3432 1269.27 87.0615C1271.55 84.7798 1272.83 81.6851 1272.83 78.4583C1272.83 66.5958 1261.88 57.1667 1248.5 57.1667ZM1231.77 75.4167C1234.2 75.4167 1236.33 77.5458 1236.33 79.9792C1236.33 82.4125 1234.2 84.5417 1231.77 84.5417C1229.34 84.5417 1227.21 82.4125 1227.21 79.9792C1227.21 77.5458 1229.34 75.4167 1231.77 75.4167ZM1240.9 63.25C1243.33 63.25 1245.46 65.3792 1245.46 67.8125C1245.46 70.2458 1243.33 72.375 1240.9 72.375C1238.46 72.375 1236.33 70.2458 1236.33 67.8125C1236.33 65.3792 1238.46 63.25 1240.9 63.25ZM1256.1 63.25C1258.54 63.25 1260.67 65.3792 1260.67 67.8125C1260.67 70.2458 1258.54 72.375 1256.1 72.375C1253.67 72.375 1251.54 70.2458 1251.54 67.8125C1251.54 65.3792 1253.67 63.25 1256.1 63.25ZM1265.23 75.4167C1267.66 75.4167 1269.79 77.5458 1269.79 79.9792C1269.79 82.4125 1267.66 84.5417 1265.23 84.5417C1262.8 84.5417 1260.67 82.4125 1260.67 79.9792C1260.67 77.5458 1262.8 75.4167 1265.23 75.4167Z" fill="white"/>
</svg>
