<svg width="1363" height="163" viewBox="0 0 1363 163" fill="none" xmlns="http://www.w3.org/2000/svg">
<path d="M0 15C0 6.71573 6.71573 0 15 0H37V163H15C6.71573 163 0 156.284 0 148V15Z" fill="#424242"/>
<rect width="1097" height="163" transform="translate(37)" fill="#F0F0F0"/>
<path d="M101.906 53.9219L94.3945 51.2383V48.0859L104.602 52.375V54.6367L101.906 53.9219ZM94.3945 56.1719L101.918 53.4297L104.602 52.7852V55.0352L94.3945 59.3242V56.1719ZM119.543 54.918H115.195V52.1758H119.543C120.215 52.1758 120.762 52.0664 121.184 51.8477C121.605 51.6211 121.914 51.3086 122.109 50.9102C122.305 50.5117 122.402 50.0625 122.402 49.5625C122.402 49.0547 122.305 48.582 122.109 48.1445C121.914 47.707 121.605 47.3555 121.184 47.0898C120.762 46.8242 120.215 46.6914 119.543 46.6914H116.414V61H112.898V43.9375H119.543C120.879 43.9375 122.023 44.1797 122.977 44.6641C123.938 45.1406 124.672 45.8008 125.18 46.6445C125.688 47.4883 125.941 48.4531 125.941 49.5391C125.941 50.6406 125.688 51.5938 125.18 52.3984C124.672 53.2031 123.938 53.8242 122.977 54.2617C122.023 54.6992 120.879 54.918 119.543 54.918ZM138.258 55.3398H141.762C141.691 56.4883 141.375 57.5078 140.812 58.3984C140.258 59.2891 139.48 59.9844 138.48 60.4844C137.488 60.9844 136.293 61.2344 134.895 61.2344C133.801 61.2344 132.82 61.0469 131.953 60.6719C131.086 60.2891 130.344 59.7422 129.727 59.0312C129.117 58.3203 128.652 57.4609 128.332 56.4531C128.012 55.4453 127.852 54.3164 127.852 53.0664V51.8828C127.852 50.6328 128.016 49.5039 128.344 48.4961C128.68 47.4805 129.156 46.6172 129.773 45.9062C130.398 45.1953 131.145 44.6484 132.012 44.2656C132.879 43.8828 133.848 43.6914 134.918 43.6914C136.34 43.6914 137.539 43.9492 138.516 44.4648C139.5 44.9805 140.262 45.6914 140.801 46.5977C141.348 47.5039 141.676 48.5352 141.785 49.6914H138.27C138.23 49.0039 138.094 48.4219 137.859 47.9453C137.625 47.4609 137.27 47.0977 136.793 46.8555C136.324 46.6055 135.699 46.4805 134.918 46.4805C134.332 46.4805 133.82 46.5898 133.383 46.8086C132.945 47.0273 132.578 47.3594 132.281 47.8047C131.984 48.25 131.762 48.8125 131.613 49.4922C131.473 50.1641 131.402 50.9531 131.402 51.8594V53.0664C131.402 53.9492 131.469 54.7266 131.602 55.3984C131.734 56.0625 131.938 56.625 132.211 57.0859C132.492 57.5391 132.852 57.8828 133.289 58.1172C133.734 58.3438 134.27 58.457 134.895 58.457C135.629 58.457 136.234 58.3398 136.711 58.1055C137.188 57.8711 137.551 57.5234 137.801 57.0625C138.059 56.6016 138.211 56.0273 138.258 55.3398ZM150.75 53.5117H146.367L146.344 51.0977H150.023C150.672 51.0977 151.203 51.0156 151.617 50.8516C152.031 50.6797 152.34 50.4336 152.543 50.1133C152.754 49.7852 152.859 49.3867 152.859 48.918C152.859 48.3867 152.758 47.957 152.555 47.6289C152.359 47.3008 152.051 47.0625 151.629 46.9141C151.215 46.7656 150.68 46.6914 150.023 46.6914H147.586V61H144.07V43.9375H150.023C151.016 43.9375 151.902 44.0312 152.684 44.2188C153.473 44.4062 154.141 44.6914 154.688 45.0742C155.234 45.457 155.652 45.9414 155.941 46.5273C156.23 47.1055 156.375 47.793 156.375 48.5898C156.375 49.293 156.215 49.9414 155.895 50.5352C155.582 51.1289 155.086 51.6133 154.406 51.9883C153.734 52.3633 152.855 52.5703 151.77 52.6094L150.75 53.5117ZM150.598 61H145.406L146.777 58.2578H150.598C151.215 58.2578 151.719 58.1602 152.109 57.9648C152.5 57.7617 152.789 57.4883 152.977 57.1445C153.164 56.8008 153.258 56.4062 153.258 55.9609C153.258 55.4609 153.172 55.0273 153 54.6602C152.836 54.293 152.57 54.0117 152.203 53.8164C151.836 53.6133 151.352 53.5117 150.75 53.5117H147.363L147.387 51.0977H151.605L152.414 52.0469C153.453 52.0312 154.289 52.2148 154.922 52.5977C155.562 52.9727 156.027 53.4609 156.316 54.0625C156.613 54.6641 156.762 55.3086 156.762 55.9961C156.762 57.0898 156.523 58.0117 156.047 58.7617C155.57 59.5039 154.871 60.0625 153.949 60.4375C153.035 60.8125 151.918 61 150.598 61ZM166.688 57.9648V48.3203H170.062V61H166.887L166.688 57.9648ZM167.062 55.3633L168.059 55.3398C168.059 56.1836 167.961 56.9688 167.766 57.6953C167.57 58.4141 167.277 59.0391 166.887 59.5703C166.496 60.0938 166.004 60.5039 165.41 60.8008C164.816 61.0898 164.117 61.2344 163.312 61.2344C162.695 61.2344 162.125 61.1484 161.602 60.9766C161.086 60.7969 160.641 60.5195 160.266 60.1445C159.898 59.7617 159.609 59.2734 159.398 58.6797C159.195 58.0781 159.094 57.3555 159.094 56.5117V48.3203H162.469V56.5352C162.469 56.9102 162.512 57.2266 162.598 57.4844C162.691 57.7422 162.82 57.9531 162.984 58.1172C163.148 58.2812 163.34 58.3984 163.559 58.4688C163.785 58.5391 164.035 58.5742 164.309 58.5742C165.004 58.5742 165.551 58.4336 165.949 58.1523C166.355 57.8711 166.641 57.4883 166.805 57.0039C166.977 56.5117 167.062 55.9648 167.062 55.3633ZM180.129 58.2344V43H183.527V61H180.469L180.129 58.2344ZM172.113 54.8125V54.5664C172.113 53.5977 172.223 52.7188 172.441 51.9297C172.66 51.1328 172.98 50.4492 173.402 49.8789C173.824 49.3086 174.344 48.8672 174.961 48.5547C175.578 48.2422 176.281 48.0859 177.07 48.0859C177.812 48.0859 178.461 48.2422 179.016 48.5547C179.578 48.8672 180.055 49.3125 180.445 49.8906C180.844 50.4609 181.164 51.1367 181.406 51.918C181.648 52.6914 181.824 53.5391 181.934 54.4609V55C181.824 55.8828 181.648 56.7031 181.406 57.4609C181.164 58.2188 180.844 58.8828 180.445 59.4531C180.055 60.0156 179.578 60.4531 179.016 60.7656C178.453 61.0781 177.797 61.2344 177.047 61.2344C176.258 61.2344 175.555 61.0742 174.938 60.7539C174.328 60.4336 173.812 59.9844 173.391 59.4062C172.977 58.8281 172.66 58.1484 172.441 57.3672C172.223 56.5859 172.113 55.7344 172.113 54.8125ZM175.488 54.5664V54.8125C175.488 55.3359 175.527 55.8242 175.605 56.2773C175.691 56.7305 175.828 57.1328 176.016 57.4844C176.211 57.8281 176.461 58.0977 176.766 58.293C177.078 58.4805 177.457 58.5742 177.902 58.5742C178.48 58.5742 178.957 58.4453 179.332 58.1875C179.707 57.9219 179.992 57.5586 180.188 57.0977C180.391 56.6367 180.508 56.1055 180.539 55.5039V53.9688C180.516 53.4766 180.445 53.0352 180.328 52.6445C180.219 52.2461 180.055 51.9062 179.836 51.625C179.625 51.3438 179.359 51.125 179.039 50.9688C178.727 50.8125 178.355 50.7344 177.926 50.7344C177.488 50.7344 177.113 50.8359 176.801 51.0391C176.488 51.2344 176.234 51.5039 176.039 51.8477C175.852 52.1914 175.711 52.5977 175.617 53.0664C175.531 53.5273 175.488 54.0273 175.488 54.5664ZM193.652 58.2344V43H197.051V61H193.992L193.652 58.2344ZM185.637 54.8125V54.5664C185.637 53.5977 185.746 52.7188 185.965 51.9297C186.184 51.1328 186.504 50.4492 186.926 49.8789C187.348 49.3086 187.867 48.8672 188.484 48.5547C189.102 48.2422 189.805 48.0859 190.594 48.0859C191.336 48.0859 191.984 48.2422 192.539 48.5547C193.102 48.8672 193.578 49.3125 193.969 49.8906C194.367 50.4609 194.688 51.1367 194.93 51.918C195.172 52.6914 195.348 53.5391 195.457 54.4609V55C195.348 55.8828 195.172 56.7031 194.93 57.4609C194.688 58.2188 194.367 58.8828 193.969 59.4531C193.578 60.0156 193.102 60.4531 192.539 60.7656C191.977 61.0781 191.32 61.2344 190.57 61.2344C189.781 61.2344 189.078 61.0742 188.461 60.7539C187.852 60.4336 187.336 59.9844 186.914 59.4062C186.5 58.8281 186.184 58.1484 185.965 57.3672C185.746 56.5859 185.637 55.7344 185.637 54.8125ZM189.012 54.5664V54.8125C189.012 55.3359 189.051 55.8242 189.129 56.2773C189.215 56.7305 189.352 57.1328 189.539 57.4844C189.734 57.8281 189.984 58.0977 190.289 58.293C190.602 58.4805 190.98 58.5742 191.426 58.5742C192.004 58.5742 192.48 58.4453 192.855 58.1875C193.23 57.9219 193.516 57.5586 193.711 57.0977C193.914 56.6367 194.031 56.1055 194.062 55.5039V53.9688C194.039 53.4766 193.969 53.0352 193.852 52.6445C193.742 52.2461 193.578 51.9062 193.359 51.625C193.148 51.3438 192.883 51.125 192.562 50.9688C192.25 50.8125 191.879 50.7344 191.449 50.7344C191.012 50.7344 190.637 50.8359 190.324 51.0391C190.012 51.2344 189.758 51.5039 189.562 51.8477C189.375 52.1914 189.234 52.5977 189.141 53.0664C189.055 53.5273 189.012 54.0273 189.012 54.5664ZM203.449 59.5703L206.812 48.3203H210.434L205.336 62.9102C205.227 63.2305 205.078 63.5742 204.891 63.9414C204.711 64.3086 204.465 64.6562 204.152 64.9844C203.848 65.3203 203.461 65.5938 202.992 65.8047C202.531 66.0156 201.965 66.1211 201.293 66.1211C200.973 66.1211 200.711 66.1016 200.508 66.0625C200.305 66.0234 200.062 65.9688 199.781 65.8984V63.4258C199.867 63.4258 199.957 63.4258 200.051 63.4258C200.145 63.4336 200.234 63.4375 200.32 63.4375C200.766 63.4375 201.129 63.3867 201.41 63.2852C201.691 63.1836 201.918 63.0273 202.09 62.8164C202.262 62.6133 202.398 62.3477 202.5 62.0195L203.449 59.5703ZM202.043 48.3203L204.797 57.5078L205.277 61.082L202.98 61.3281L198.422 48.3203H202.043Z" fill="#888888"/>
<path d="M118.594 98.4219V104.75H101.086V98.4219H118.594ZM103.828 84.875V119H95.6016V84.875H103.828ZM124.125 84.875V119H115.922V84.875H124.125ZM127.992 106.578V106.086C127.992 104.227 128.258 102.516 128.789 100.953C129.32 99.375 130.102 98.0078 131.133 96.8516C132.164 95.6953 133.438 94.7969 134.953 94.1562C136.469 93.5 138.219 93.1719 140.203 93.1719C142.203 93.1719 143.961 93.5 145.477 94.1562C147.008 94.7969 148.289 95.6953 149.32 96.8516C150.352 98.0078 151.133 99.375 151.664 100.953C152.195 102.516 152.461 104.227 152.461 106.086V106.578C152.461 108.422 152.195 110.133 151.664 111.711C151.133 113.273 150.352 114.641 149.32 115.812C148.289 116.969 147.016 117.867 145.5 118.508C143.984 119.148 142.234 119.469 140.25 119.469C138.266 119.469 136.508 119.148 134.977 118.508C133.445 117.867 132.164 116.969 131.133 115.812C130.102 114.641 129.32 113.273 128.789 111.711C128.258 110.133 127.992 108.422 127.992 106.578ZM135.891 106.086V106.578C135.891 107.531 135.961 108.422 136.102 109.25C136.242 110.078 136.477 110.805 136.805 111.43C137.133 112.039 137.578 112.516 138.141 112.859C138.703 113.203 139.406 113.375 140.25 113.375C141.078 113.375 141.766 113.203 142.312 112.859C142.875 112.516 143.32 112.039 143.648 111.43C143.977 110.805 144.211 110.078 144.352 109.25C144.492 108.422 144.562 107.531 144.562 106.578V106.086C144.562 105.164 144.492 104.297 144.352 103.484C144.211 102.656 143.977 101.93 143.648 101.305C143.32 100.664 142.875 100.164 142.312 99.8047C141.75 99.4453 141.047 99.2656 140.203 99.2656C139.375 99.2656 138.68 99.4453 138.117 99.8047C137.57 100.164 137.133 100.664 136.805 101.305C136.477 101.93 136.242 102.656 136.102 103.484C135.961 104.297 135.891 105.164 135.891 106.086ZM163.688 111.453L168.375 93.6406H173.32L171.562 102.57L166.922 119H162.961L163.688 111.453ZM161.836 93.6406L164.742 111.312L165.07 119H160.266L154.266 93.6406H161.836ZM177.492 110.938L180.422 93.6406H187.992L182.039 119H177.234L177.492 110.938ZM173.883 93.6406L178.617 111.406L179.344 119H175.336L170.789 102.617L169.102 93.6406H173.883ZM218.297 84.875V119H210.07V84.875H218.297ZM228.562 84.875V91.2266H200.039V84.875H228.562ZM225.773 106.578V106.086C225.773 104.227 226.039 102.516 226.57 100.953C227.102 99.375 227.883 98.0078 228.914 96.8516C229.945 95.6953 231.219 94.7969 232.734 94.1562C234.25 93.5 236 93.1719 237.984 93.1719C239.984 93.1719 241.742 93.5 243.258 94.1562C244.789 94.7969 246.07 95.6953 247.102 96.8516C248.133 98.0078 248.914 99.375 249.445 100.953C249.977 102.516 250.242 104.227 250.242 106.086V106.578C250.242 108.422 249.977 110.133 249.445 111.711C248.914 113.273 248.133 114.641 247.102 115.812C246.07 116.969 244.797 117.867 243.281 118.508C241.766 119.148 240.016 119.469 238.031 119.469C236.047 119.469 234.289 119.148 232.758 118.508C231.227 117.867 229.945 116.969 228.914 115.812C227.883 114.641 227.102 113.273 226.57 111.711C226.039 110.133 225.773 108.422 225.773 106.578ZM233.672 106.086V106.578C233.672 107.531 233.742 108.422 233.883 109.25C234.023 110.078 234.258 110.805 234.586 111.43C234.914 112.039 235.359 112.516 235.922 112.859C236.484 113.203 237.188 113.375 238.031 113.375C238.859 113.375 239.547 113.203 240.094 112.859C240.656 112.516 241.102 112.039 241.43 111.43C241.758 110.805 241.992 110.078 242.133 109.25C242.273 108.422 242.344 107.531 242.344 106.578V106.086C242.344 105.164 242.273 104.297 242.133 103.484C241.992 102.656 241.758 101.93 241.43 101.305C241.102 100.664 240.656 100.164 240.094 99.8047C239.531 99.4453 238.828 99.2656 237.984 99.2656C237.156 99.2656 236.461 99.4453 235.898 99.8047C235.352 100.164 234.914 100.664 234.586 101.305C234.258 101.93 234.023 102.656 233.883 103.484C233.742 104.297 233.672 105.164 233.672 106.086ZM266.086 84.875H279.516C282.141 84.875 284.422 85.2656 286.359 86.0469C288.297 86.8281 289.789 87.9844 290.836 89.5156C291.898 91.0469 292.43 92.9375 292.43 95.1875C292.43 97.1406 292.125 98.7734 291.516 100.086C290.906 101.398 290.055 102.484 288.961 103.344C287.883 104.188 286.625 104.883 285.188 105.43L282.492 106.953H271.219L271.172 100.602H279.516C280.562 100.602 281.43 100.414 282.117 100.039C282.805 99.6641 283.32 99.1328 283.664 98.4453C284.023 97.7422 284.203 96.9062 284.203 95.9375C284.203 94.9531 284.023 94.1094 283.664 93.4062C283.305 92.7031 282.773 92.1641 282.07 91.7891C281.383 91.4141 280.531 91.2266 279.516 91.2266H274.312V119H266.086V84.875ZM284.766 119L277.219 103.906L285.938 103.859L293.578 118.648V119H284.766ZM311.836 112.836V93.6406H319.758V119H312.352L311.836 112.836ZM312.586 107.68L314.648 107.633C314.648 109.336 314.445 110.914 314.039 112.367C313.633 113.805 313.031 115.055 312.234 116.117C311.453 117.18 310.484 118.008 309.328 118.602C308.188 119.18 306.867 119.469 305.367 119.469C304.117 119.469 302.969 119.297 301.922 118.953C300.891 118.594 300 118.039 299.25 117.289C298.5 116.523 297.914 115.547 297.492 114.359C297.086 113.156 296.883 111.719 296.883 110.047V93.6406H304.781V110.094C304.781 110.656 304.852 111.141 304.992 111.547C305.133 111.953 305.336 112.297 305.602 112.578C305.867 112.844 306.195 113.047 306.586 113.188C306.992 113.312 307.453 113.375 307.969 113.375C309.156 113.375 310.086 113.125 310.758 112.625C311.43 112.125 311.898 111.445 312.164 110.586C312.445 109.727 312.586 108.758 312.586 107.68ZM331.875 99.0547V119H323.977V93.6406H331.383L331.875 99.0547ZM330.938 105.453L329.086 105.5C329.086 103.562 329.32 101.836 329.789 100.32C330.258 98.7891 330.922 97.4922 331.781 96.4297C332.641 95.3672 333.664 94.5625 334.852 94.0156C336.055 93.4531 337.391 93.1719 338.859 93.1719C340.031 93.1719 341.102 93.3438 342.07 93.6875C343.055 94.0312 343.898 94.5859 344.602 95.3516C345.32 96.1172 345.867 97.1328 346.242 98.3984C346.633 99.6484 346.828 101.195 346.828 103.039V119H338.883V103.016C338.883 102 338.742 101.227 338.461 100.695C338.18 100.148 337.773 99.7734 337.242 99.5703C336.711 99.3672 336.062 99.2656 335.297 99.2656C334.484 99.2656 333.797 99.4219 333.234 99.7344C332.672 100.047 332.219 100.484 331.875 101.047C331.547 101.594 331.305 102.242 331.148 102.992C331.008 103.742 330.938 104.562 330.938 105.453ZM363.773 108.195H357.047C357.047 106.82 357.141 105.609 357.328 104.562C357.531 103.5 357.875 102.547 358.359 101.703C358.844 100.859 359.5 100.078 360.328 99.3594C361.062 98.75 361.695 98.1641 362.227 97.6016C362.758 97.0391 363.164 96.4688 363.445 95.8906C363.727 95.3125 363.867 94.6953 363.867 94.0391C363.867 93.2266 363.75 92.5625 363.516 92.0469C363.297 91.5312 362.961 91.1484 362.508 90.8984C362.07 90.6328 361.516 90.5 360.844 90.5C360.297 90.5 359.781 90.6328 359.297 90.8984C358.828 91.1641 358.445 91.5781 358.148 92.1406C357.852 92.6875 357.688 93.4141 357.656 94.3203H349.711C349.758 91.9922 350.273 90.1016 351.258 88.6484C352.258 87.1797 353.586 86.1094 355.242 85.4375C356.914 84.75 358.781 84.4062 360.844 84.4062C363.125 84.4062 365.086 84.7578 366.727 85.4609C368.367 86.1641 369.625 87.2109 370.5 88.6016C371.375 89.9766 371.812 91.6719 371.812 93.6875C371.812 95.0312 371.555 96.2031 371.039 97.2031C370.539 98.1875 369.859 99.1094 369 99.9688C368.156 100.812 367.211 101.719 366.164 102.688C365.258 103.484 364.641 104.297 364.312 105.125C363.984 105.938 363.805 106.961 363.773 108.195ZM356.086 115.32C356.086 114.195 356.492 113.258 357.305 112.508C358.117 111.742 359.172 111.359 360.469 111.359C361.766 111.359 362.82 111.742 363.633 112.508C364.445 113.258 364.852 114.195 364.852 115.32C364.852 116.445 364.445 117.391 363.633 118.156C362.82 118.906 361.766 119.281 360.469 119.281C359.172 119.281 358.117 118.906 357.305 118.156C356.492 117.391 356.086 116.445 356.086 115.32Z" fill="black"/>
<path d="M1134 0H1348C1356.28 0 1363 6.71573 1363 15V148C1363 156.284 1356.28 163 1348 163H1134V0Z" fill="#3A76A8"/>
<path d="M1260.62 78.8847C1263.81 78.8847 1266.93 79.805 1269.59 81.5293C1272.25 83.2536 1274.32 85.7044 1275.54 88.5718C1276.76 91.4391 1277.08 94.5943 1276.46 97.6383C1275.84 100.682 1274.3 103.478 1272.04 105.673C1269.78 107.868 1266.9 109.362 1263.77 109.968C1260.63 110.573 1257.39 110.262 1254.43 109.075C1251.48 107.887 1248.96 105.876 1247.18 103.295C1245.41 100.714 1244.46 97.6806 1244.46 94.5769C1244.46 90.4151 1246.16 86.4237 1249.19 83.4808C1252.22 80.538 1256.33 78.8847 1260.62 78.8847ZM1260.62 73.6539C1256.36 73.6539 1252.19 74.881 1248.65 77.1801C1245.11 79.4791 1242.35 82.7469 1240.72 86.57C1239.09 90.3932 1238.66 94.6001 1239.49 98.6588C1240.32 102.717 1242.37 106.446 1245.39 109.372C1248.4 112.298 1252.24 114.291 1256.41 115.098C1260.59 115.905 1264.92 115.491 1268.86 113.907C1272.79 112.324 1276.16 109.642 1278.52 106.201C1280.89 102.76 1282.15 98.7151 1282.15 94.5769C1282.15 89.0278 1279.88 83.706 1275.85 79.7821C1271.81 75.8583 1266.33 73.6539 1260.62 73.6539Z" fill="white"/>
<path d="M1274.08 47.5H1220.23C1218.8 47.5 1217.43 48.0511 1216.42 49.0321C1215.41 50.013 1214.85 51.3435 1214.85 52.7307V105.038C1214.85 106.426 1215.41 107.756 1216.42 108.737C1217.43 109.718 1218.8 110.269 1220.23 110.269H1231V105.038H1220.23V68.423H1279.46V52.7307C1279.46 51.3435 1278.89 50.013 1277.88 49.0321C1276.87 48.0511 1275.5 47.5 1274.08 47.5ZM1220.23 63.1922V52.7307H1274.08V63.1922H1220.23Z" fill="white"/>
<path d="M1255.23 86.731V102.423L1268.69 94.5771L1255.23 86.731Z" fill="white"/>
</svg>
