<svg width="1363" height="163" viewBox="0 0 1363 163" fill="none" xmlns="http://www.w3.org/2000/svg">
<path d="M0 15C0 6.71573 6.71573 0 15 0H37V163H15C6.71573 163 0 156.284 0 148V15Z" fill="#424242"/>
<rect width="1097" height="163" transform="translate(37)" fill="#F0F0F0"/>
<path d="M101.906 53.9219L94.3945 51.2383V48.0859L104.602 52.375V54.6367L101.906 53.9219ZM94.3945 56.1719L101.918 53.4297L104.602 52.7852V55.0352L94.3945 59.3242V56.1719ZM119.543 54.918H115.195V52.1758H119.543C120.215 52.1758 120.762 52.0664 121.184 51.8477C121.605 51.6211 121.914 51.3086 122.109 50.9102C122.305 50.5117 122.402 50.0625 122.402 49.5625C122.402 49.0547 122.305 48.582 122.109 48.1445C121.914 47.707 121.605 47.3555 121.184 47.0898C120.762 46.8242 120.215 46.6914 119.543 46.6914H116.414V61H112.898V43.9375H119.543C120.879 43.9375 122.023 44.1797 122.977 44.6641C123.938 45.1406 124.672 45.8008 125.18 46.6445C125.688 47.4883 125.941 48.4531 125.941 49.5391C125.941 50.6406 125.688 51.5938 125.18 52.3984C124.672 53.2031 123.938 53.8242 122.977 54.2617C122.023 54.6992 120.879 54.918 119.543 54.918ZM138.258 55.3398H141.762C141.691 56.4883 141.375 57.5078 140.812 58.3984C140.258 59.2891 139.48 59.9844 138.48 60.4844C137.488 60.9844 136.293 61.2344 134.895 61.2344C133.801 61.2344 132.82 61.0469 131.953 60.6719C131.086 60.2891 130.344 59.7422 129.727 59.0312C129.117 58.3203 128.652 57.4609 128.332 56.4531C128.012 55.4453 127.852 54.3164 127.852 53.0664V51.8828C127.852 50.6328 128.016 49.5039 128.344 48.4961C128.68 47.4805 129.156 46.6172 129.773 45.9062C130.398 45.1953 131.145 44.6484 132.012 44.2656C132.879 43.8828 133.848 43.6914 134.918 43.6914C136.34 43.6914 137.539 43.9492 138.516 44.4648C139.5 44.9805 140.262 45.6914 140.801 46.5977C141.348 47.5039 141.676 48.5352 141.785 49.6914H138.27C138.23 49.0039 138.094 48.4219 137.859 47.9453C137.625 47.4609 137.27 47.0977 136.793 46.8555C136.324 46.6055 135.699 46.4805 134.918 46.4805C134.332 46.4805 133.82 46.5898 133.383 46.8086C132.945 47.0273 132.578 47.3594 132.281 47.8047C131.984 48.25 131.762 48.8125 131.613 49.4922C131.473 50.1641 131.402 50.9531 131.402 51.8594V53.0664C131.402 53.9492 131.469 54.7266 131.602 55.3984C131.734 56.0625 131.938 56.625 132.211 57.0859C132.492 57.5391 132.852 57.8828 133.289 58.1172C133.734 58.3438 134.27 58.457 134.895 58.457C135.629 58.457 136.234 58.3398 136.711 58.1055C137.188 57.8711 137.551 57.5234 137.801 57.0625C138.059 56.6016 138.211 56.0273 138.258 55.3398ZM150.75 53.5117H146.367L146.344 51.0977H150.023C150.672 51.0977 151.203 51.0156 151.617 50.8516C152.031 50.6797 152.34 50.4336 152.543 50.1133C152.754 49.7852 152.859 49.3867 152.859 48.918C152.859 48.3867 152.758 47.957 152.555 47.6289C152.359 47.3008 152.051 47.0625 151.629 46.9141C151.215 46.7656 150.68 46.6914 150.023 46.6914H147.586V61H144.07V43.9375H150.023C151.016 43.9375 151.902 44.0312 152.684 44.2188C153.473 44.4062 154.141 44.6914 154.688 45.0742C155.234 45.457 155.652 45.9414 155.941 46.5273C156.23 47.1055 156.375 47.793 156.375 48.5898C156.375 49.293 156.215 49.9414 155.895 50.5352C155.582 51.1289 155.086 51.6133 154.406 51.9883C153.734 52.3633 152.855 52.5703 151.77 52.6094L150.75 53.5117ZM150.598 61H145.406L146.777 58.2578H150.598C151.215 58.2578 151.719 58.1602 152.109 57.9648C152.5 57.7617 152.789 57.4883 152.977 57.1445C153.164 56.8008 153.258 56.4062 153.258 55.9609C153.258 55.4609 153.172 55.0273 153 54.6602C152.836 54.293 152.57 54.0117 152.203 53.8164C151.836 53.6133 151.352 53.5117 150.75 53.5117H147.363L147.387 51.0977H151.605L152.414 52.0469C153.453 52.0312 154.289 52.2148 154.922 52.5977C155.562 52.9727 156.027 53.4609 156.316 54.0625C156.613 54.6641 156.762 55.3086 156.762 55.9961C156.762 57.0898 156.523 58.0117 156.047 58.7617C155.57 59.5039 154.871 60.0625 153.949 60.4375C153.035 60.8125 151.918 61 150.598 61ZM166.688 57.9648V48.3203H170.062V61H166.887L166.688 57.9648ZM167.062 55.3633L168.059 55.3398C168.059 56.1836 167.961 56.9688 167.766 57.6953C167.57 58.4141 167.277 59.0391 166.887 59.5703C166.496 60.0938 166.004 60.5039 165.41 60.8008C164.816 61.0898 164.117 61.2344 163.312 61.2344C162.695 61.2344 162.125 61.1484 161.602 60.9766C161.086 60.7969 160.641 60.5195 160.266 60.1445C159.898 59.7617 159.609 59.2734 159.398 58.6797C159.195 58.0781 159.094 57.3555 159.094 56.5117V48.3203H162.469V56.5352C162.469 56.9102 162.512 57.2266 162.598 57.4844C162.691 57.7422 162.82 57.9531 162.984 58.1172C163.148 58.2812 163.34 58.3984 163.559 58.4688C163.785 58.5391 164.035 58.5742 164.309 58.5742C165.004 58.5742 165.551 58.4336 165.949 58.1523C166.355 57.8711 166.641 57.4883 166.805 57.0039C166.977 56.5117 167.062 55.9648 167.062 55.3633ZM180.129 58.2344V43H183.527V61H180.469L180.129 58.2344ZM172.113 54.8125V54.5664C172.113 53.5977 172.223 52.7188 172.441 51.9297C172.66 51.1328 172.98 50.4492 173.402 49.8789C173.824 49.3086 174.344 48.8672 174.961 48.5547C175.578 48.2422 176.281 48.0859 177.07 48.0859C177.812 48.0859 178.461 48.2422 179.016 48.5547C179.578 48.8672 180.055 49.3125 180.445 49.8906C180.844 50.4609 181.164 51.1367 181.406 51.918C181.648 52.6914 181.824 53.5391 181.934 54.4609V55C181.824 55.8828 181.648 56.7031 181.406 57.4609C181.164 58.2188 180.844 58.8828 180.445 59.4531C180.055 60.0156 179.578 60.4531 179.016 60.7656C178.453 61.0781 177.797 61.2344 177.047 61.2344C176.258 61.2344 175.555 61.0742 174.938 60.7539C174.328 60.4336 173.812 59.9844 173.391 59.4062C172.977 58.8281 172.66 58.1484 172.441 57.3672C172.223 56.5859 172.113 55.7344 172.113 54.8125ZM175.488 54.5664V54.8125C175.488 55.3359 175.527 55.8242 175.605 56.2773C175.691 56.7305 175.828 57.1328 176.016 57.4844C176.211 57.8281 176.461 58.0977 176.766 58.293C177.078 58.4805 177.457 58.5742 177.902 58.5742C178.48 58.5742 178.957 58.4453 179.332 58.1875C179.707 57.9219 179.992 57.5586 180.188 57.0977C180.391 56.6367 180.508 56.1055 180.539 55.5039V53.9688C180.516 53.4766 180.445 53.0352 180.328 52.6445C180.219 52.2461 180.055 51.9062 179.836 51.625C179.625 51.3438 179.359 51.125 179.039 50.9688C178.727 50.8125 178.355 50.7344 177.926 50.7344C177.488 50.7344 177.113 50.8359 176.801 51.0391C176.488 51.2344 176.234 51.5039 176.039 51.8477C175.852 52.1914 175.711 52.5977 175.617 53.0664C175.531 53.5273 175.488 54.0273 175.488 54.5664ZM193.652 58.2344V43H197.051V61H193.992L193.652 58.2344ZM185.637 54.8125V54.5664C185.637 53.5977 185.746 52.7188 185.965 51.9297C186.184 51.1328 186.504 50.4492 186.926 49.8789C187.348 49.3086 187.867 48.8672 188.484 48.5547C189.102 48.2422 189.805 48.0859 190.594 48.0859C191.336 48.0859 191.984 48.2422 192.539 48.5547C193.102 48.8672 193.578 49.3125 193.969 49.8906C194.367 50.4609 194.688 51.1367 194.93 51.918C195.172 52.6914 195.348 53.5391 195.457 54.4609V55C195.348 55.8828 195.172 56.7031 194.93 57.4609C194.688 58.2188 194.367 58.8828 193.969 59.4531C193.578 60.0156 193.102 60.4531 192.539 60.7656C191.977 61.0781 191.32 61.2344 190.57 61.2344C189.781 61.2344 189.078 61.0742 188.461 60.7539C187.852 60.4336 187.336 59.9844 186.914 59.4062C186.5 58.8281 186.184 58.1484 185.965 57.3672C185.746 56.5859 185.637 55.7344 185.637 54.8125ZM189.012 54.5664V54.8125C189.012 55.3359 189.051 55.8242 189.129 56.2773C189.215 56.7305 189.352 57.1328 189.539 57.4844C189.734 57.8281 189.984 58.0977 190.289 58.293C190.602 58.4805 190.98 58.5742 191.426 58.5742C192.004 58.5742 192.48 58.4453 192.855 58.1875C193.23 57.9219 193.516 57.5586 193.711 57.0977C193.914 56.6367 194.031 56.1055 194.062 55.5039V53.9688C194.039 53.4766 193.969 53.0352 193.852 52.6445C193.742 52.2461 193.578 51.9062 193.359 51.625C193.148 51.3438 192.883 51.125 192.562 50.9688C192.25 50.8125 191.879 50.7344 191.449 50.7344C191.012 50.7344 190.637 50.8359 190.324 51.0391C190.012 51.2344 189.758 51.5039 189.562 51.8477C189.375 52.1914 189.234 52.5977 189.141 53.0664C189.055 53.5273 189.012 54.0273 189.012 54.5664ZM203.449 59.5703L206.812 48.3203H210.434L205.336 62.9102C205.227 63.2305 205.078 63.5742 204.891 63.9414C204.711 64.3086 204.465 64.6562 204.152 64.9844C203.848 65.3203 203.461 65.5938 202.992 65.8047C202.531 66.0156 201.965 66.1211 201.293 66.1211C200.973 66.1211 200.711 66.1016 200.508 66.0625C200.305 66.0234 200.062 65.9688 199.781 65.8984V63.4258C199.867 63.4258 199.957 63.4258 200.051 63.4258C200.145 63.4336 200.234 63.4375 200.32 63.4375C200.766 63.4375 201.129 63.3867 201.41 63.2852C201.691 63.1836 201.918 63.0273 202.09 62.8164C202.262 62.6133 202.398 62.3477 202.5 62.0195L203.449 59.5703ZM202.043 48.3203L204.797 57.5078L205.277 61.082L202.98 61.3281L198.422 48.3203H202.043Z" fill="#888888"/>
<path d="M104.344 84.875V119H96.1406V84.875H104.344ZM117.727 99.0078V119H109.828V93.6406H117.234L117.727 99.0078ZM116.766 105.453L114.961 105.5C114.961 103.719 115.172 102.078 115.594 100.578C116.016 99.0781 116.641 97.7734 117.469 96.6641C118.297 95.5547 119.312 94.6953 120.516 94.0859C121.734 93.4766 123.141 93.1719 124.734 93.1719C125.844 93.1719 126.852 93.3438 127.758 93.6875C128.664 94.0156 129.445 94.5391 130.102 95.2578C130.758 95.9609 131.258 96.8828 131.602 98.0234C131.961 99.1484 132.141 100.5 132.141 102.078V119H124.242V103.086C124.242 102.008 124.117 101.195 123.867 100.648C123.633 100.102 123.289 99.7344 122.836 99.5469C122.383 99.3594 121.828 99.2656 121.172 99.2656C120.484 99.2656 119.867 99.4219 119.32 99.7344C118.773 100.047 118.305 100.484 117.914 101.047C117.539 101.594 117.25 102.242 117.047 102.992C116.859 103.742 116.766 104.562 116.766 105.453ZM131.25 105.453L129.047 105.5C129.047 103.719 129.242 102.078 129.633 100.578C130.039 99.0781 130.641 97.7734 131.438 96.6641C132.25 95.5547 133.258 94.6953 134.461 94.0859C135.664 93.4766 137.062 93.1719 138.656 93.1719C139.812 93.1719 140.875 93.3438 141.844 93.6875C142.812 94.0312 143.648 94.5859 144.352 95.3516C145.055 96.1172 145.602 97.1328 145.992 98.3984C146.383 99.6484 146.578 101.195 146.578 103.039V119H138.656V103.039C138.656 101.992 138.531 101.203 138.281 100.672C138.047 100.125 137.703 99.7578 137.25 99.5703C136.797 99.3672 136.258 99.2656 135.633 99.2656C134.883 99.2656 134.234 99.4219 133.688 99.7344C133.141 100.047 132.68 100.484 132.305 101.047C131.945 101.594 131.68 102.242 131.508 102.992C131.336 103.742 131.25 104.562 131.25 105.453ZM159.07 98.5156V128.75H151.172V93.6406H158.531L159.07 98.5156ZM174.633 106.016V106.508C174.633 108.352 174.422 110.062 174 111.641C173.578 113.219 172.953 114.594 172.125 115.766C171.297 116.938 170.266 117.852 169.031 118.508C167.812 119.148 166.398 119.469 164.789 119.469C163.273 119.469 161.969 119.133 160.875 118.461C159.781 117.789 158.867 116.859 158.133 115.672C157.398 114.484 156.805 113.125 156.352 111.594C155.898 110.062 155.539 108.445 155.273 106.742V106.109C155.539 104.281 155.898 102.586 156.352 101.023C156.805 99.4453 157.398 98.0703 158.133 96.8984C158.867 95.7266 159.773 94.8125 160.852 94.1562C161.945 93.5 163.25 93.1719 164.766 93.1719C166.375 93.1719 167.789 93.4766 169.008 94.0859C170.242 94.6953 171.273 95.5703 172.102 96.7109C172.945 97.8359 173.578 99.1875 174 100.766C174.422 102.344 174.633 104.094 174.633 106.016ZM166.734 106.508V106.016C166.734 105.031 166.664 104.133 166.523 103.32C166.383 102.492 166.156 101.773 165.844 101.164C165.547 100.555 165.148 100.086 164.648 99.7578C164.148 99.4297 163.531 99.2656 162.797 99.2656C161.953 99.2656 161.242 99.3984 160.664 99.6641C160.102 99.9141 159.648 100.305 159.305 100.836C158.977 101.352 158.742 102 158.602 102.781C158.477 103.547 158.422 104.445 158.438 105.477V107.398C158.406 108.586 158.523 109.633 158.789 110.539C159.055 111.43 159.516 112.125 160.172 112.625C160.828 113.125 161.719 113.375 162.844 113.375C163.594 113.375 164.219 113.203 164.719 112.859C165.219 112.5 165.617 112.008 165.914 111.383C166.211 110.742 166.422 110.008 166.547 109.18C166.672 108.352 166.734 107.461 166.734 106.508ZM186.492 83V119H178.57V83H186.492ZM203.648 119.469C201.586 119.469 199.742 119.148 198.117 118.508C196.492 117.852 195.117 116.953 193.992 115.812C192.883 114.672 192.031 113.359 191.438 111.875C190.859 110.391 190.57 108.82 190.57 107.164V106.273C190.57 104.414 190.828 102.695 191.344 101.117C191.859 99.5234 192.625 98.1328 193.641 96.9453C194.656 95.7578 195.93 94.8359 197.461 94.1797C198.992 93.5078 200.773 93.1719 202.805 93.1719C204.602 93.1719 206.211 93.4609 207.633 94.0391C209.055 94.6172 210.258 95.4453 211.242 96.5234C212.242 97.6016 213 98.9062 213.516 100.438C214.047 101.969 214.312 103.688 214.312 105.594V108.805H193.594V103.859H206.602V103.25C206.617 102.406 206.469 101.688 206.156 101.094C205.859 100.5 205.422 100.047 204.844 99.7344C204.266 99.4219 203.562 99.2656 202.734 99.2656C201.875 99.2656 201.164 99.4531 200.602 99.8281C200.055 100.203 199.625 100.719 199.312 101.375C199.016 102.016 198.805 102.758 198.68 103.602C198.555 104.445 198.492 105.336 198.492 106.273V107.164C198.492 108.102 198.617 108.953 198.867 109.719C199.133 110.484 199.508 111.141 199.992 111.688C200.492 112.219 201.086 112.633 201.773 112.93C202.477 113.227 203.273 113.375 204.164 113.375C205.242 113.375 206.305 113.172 207.352 112.766C208.398 112.359 209.297 111.688 210.047 110.75L213.633 115.016C213.117 115.75 212.383 116.461 211.43 117.148C210.492 117.836 209.367 118.398 208.055 118.836C206.742 119.258 205.273 119.469 203.648 119.469ZM225.492 99.0078V119H217.594V93.6406H225L225.492 99.0078ZM224.531 105.453L222.727 105.5C222.727 103.719 222.938 102.078 223.359 100.578C223.781 99.0781 224.406 97.7734 225.234 96.6641C226.062 95.5547 227.078 94.6953 228.281 94.0859C229.5 93.4766 230.906 93.1719 232.5 93.1719C233.609 93.1719 234.617 93.3438 235.523 93.6875C236.43 94.0156 237.211 94.5391 237.867 95.2578C238.523 95.9609 239.023 96.8828 239.367 98.0234C239.727 99.1484 239.906 100.5 239.906 102.078V119H232.008V103.086C232.008 102.008 231.883 101.195 231.633 100.648C231.398 100.102 231.055 99.7344 230.602 99.5469C230.148 99.3594 229.594 99.2656 228.938 99.2656C228.25 99.2656 227.633 99.4219 227.086 99.7344C226.539 100.047 226.07 100.484 225.68 101.047C225.305 101.594 225.016 102.242 224.812 102.992C224.625 103.742 224.531 104.562 224.531 105.453ZM239.016 105.453L236.812 105.5C236.812 103.719 237.008 102.078 237.398 100.578C237.805 99.0781 238.406 97.7734 239.203 96.6641C240.016 95.5547 241.023 94.6953 242.227 94.0859C243.43 93.4766 244.828 93.1719 246.422 93.1719C247.578 93.1719 248.641 93.3438 249.609 93.6875C250.578 94.0312 251.414 94.5859 252.117 95.3516C252.82 96.1172 253.367 97.1328 253.758 98.3984C254.148 99.6484 254.344 101.195 254.344 103.039V119H246.422V103.039C246.422 101.992 246.297 101.203 246.047 100.672C245.812 100.125 245.469 99.7578 245.016 99.5703C244.562 99.3672 244.023 99.2656 243.398 99.2656C242.648 99.2656 242 99.4219 241.453 99.7344C240.906 100.047 240.445 100.484 240.07 101.047C239.711 101.594 239.445 102.242 239.273 102.992C239.102 103.742 239.016 104.562 239.016 105.453ZM271.148 119.469C269.086 119.469 267.242 119.148 265.617 118.508C263.992 117.852 262.617 116.953 261.492 115.812C260.383 114.672 259.531 113.359 258.938 111.875C258.359 110.391 258.07 108.82 258.07 107.164V106.273C258.07 104.414 258.328 102.695 258.844 101.117C259.359 99.5234 260.125 98.1328 261.141 96.9453C262.156 95.7578 263.43 94.8359 264.961 94.1797C266.492 93.5078 268.273 93.1719 270.305 93.1719C272.102 93.1719 273.711 93.4609 275.133 94.0391C276.555 94.6172 277.758 95.4453 278.742 96.5234C279.742 97.6016 280.5 98.9062 281.016 100.438C281.547 101.969 281.812 103.688 281.812 105.594V108.805H261.094V103.859H274.102V103.25C274.117 102.406 273.969 101.688 273.656 101.094C273.359 100.5 272.922 100.047 272.344 99.7344C271.766 99.4219 271.062 99.2656 270.234 99.2656C269.375 99.2656 268.664 99.4531 268.102 99.8281C267.555 100.203 267.125 100.719 266.812 101.375C266.516 102.016 266.305 102.758 266.18 103.602C266.055 104.445 265.992 105.336 265.992 106.273V107.164C265.992 108.102 266.117 108.953 266.367 109.719C266.633 110.484 267.008 111.141 267.492 111.688C267.992 112.219 268.586 112.633 269.273 112.93C269.977 113.227 270.773 113.375 271.664 113.375C272.742 113.375 273.805 113.172 274.852 112.766C275.898 112.359 276.797 111.688 277.547 110.75L281.133 115.016C280.617 115.75 279.883 116.461 278.93 117.148C277.992 117.836 276.867 118.398 275.555 118.836C274.242 119.258 272.773 119.469 271.148 119.469ZM292.781 99.0547V119H284.883V93.6406H292.289L292.781 99.0547ZM291.844 105.453L289.992 105.5C289.992 103.562 290.227 101.836 290.695 100.32C291.164 98.7891 291.828 97.4922 292.688 96.4297C293.547 95.3672 294.57 94.5625 295.758 94.0156C296.961 93.4531 298.297 93.1719 299.766 93.1719C300.938 93.1719 302.008 93.3438 302.977 93.6875C303.961 94.0312 304.805 94.5859 305.508 95.3516C306.227 96.1172 306.773 97.1328 307.148 98.3984C307.539 99.6484 307.734 101.195 307.734 103.039V119H299.789V103.016C299.789 102 299.648 101.227 299.367 100.695C299.086 100.148 298.68 99.7734 298.148 99.5703C297.617 99.3672 296.969 99.2656 296.203 99.2656C295.391 99.2656 294.703 99.4219 294.141 99.7344C293.578 100.047 293.125 100.484 292.781 101.047C292.453 101.594 292.211 102.242 292.055 102.992C291.914 103.742 291.844 104.562 291.844 105.453ZM325.477 93.6406V99.125H310.195V93.6406H325.477ZM313.406 87.3359H321.305V110.727C321.305 111.398 321.383 111.922 321.539 112.297C321.695 112.656 321.961 112.914 322.336 113.07C322.727 113.211 323.242 113.281 323.883 113.281C324.336 113.281 324.711 113.273 325.008 113.258C325.305 113.227 325.586 113.188 325.852 113.141V118.789C325.18 119.008 324.477 119.172 323.742 119.281C323.008 119.406 322.227 119.469 321.398 119.469C319.711 119.469 318.266 119.203 317.062 118.672C315.875 118.141 314.969 117.305 314.344 116.164C313.719 115.023 313.406 113.539 313.406 111.711V87.3359ZM341.789 112.625V102.172C341.789 101.453 341.688 100.836 341.484 100.32C341.281 99.8047 340.961 99.4062 340.523 99.125C340.086 98.8281 339.5 98.6797 338.766 98.6797C338.172 98.6797 337.664 98.7812 337.242 98.9844C336.82 99.1875 336.5 99.4922 336.281 99.8984C336.062 100.305 335.953 100.82 335.953 101.445H328.055C328.055 100.273 328.312 99.1875 328.828 98.1875C329.359 97.1719 330.109 96.2891 331.078 95.5391C332.062 94.7891 333.234 94.2109 334.594 93.8047C335.969 93.3828 337.5 93.1719 339.188 93.1719C341.203 93.1719 343 93.5078 344.578 94.1797C346.172 94.8516 347.43 95.8594 348.352 97.2031C349.273 98.5312 349.734 100.203 349.734 102.219V112.602C349.734 114.258 349.828 115.516 350.016 116.375C350.203 117.219 350.469 117.961 350.812 118.602V119H342.891C342.516 118.219 342.234 117.266 342.047 116.141C341.875 115 341.789 113.828 341.789 112.625ZM342.75 103.508L342.797 107.727H339.305C338.57 107.727 337.945 107.828 337.43 108.031C336.93 108.234 336.523 108.516 336.211 108.875C335.914 109.219 335.695 109.609 335.555 110.047C335.43 110.484 335.367 110.945 335.367 111.43C335.367 111.898 335.477 112.32 335.695 112.695C335.93 113.055 336.242 113.336 336.633 113.539C337.023 113.742 337.461 113.844 337.945 113.844C338.82 113.844 339.562 113.68 340.172 113.352C340.797 113.008 341.273 112.594 341.602 112.109C341.93 111.625 342.094 111.172 342.094 110.75L343.828 113.984C343.516 114.609 343.156 115.242 342.75 115.883C342.359 116.523 341.867 117.117 341.273 117.664C340.695 118.195 339.984 118.633 339.141 118.977C338.297 119.305 337.273 119.469 336.07 119.469C334.508 119.469 333.07 119.148 331.758 118.508C330.461 117.867 329.422 116.977 328.641 115.836C327.859 114.68 327.469 113.352 327.469 111.852C327.469 110.539 327.703 109.367 328.172 108.336C328.656 107.305 329.383 106.43 330.352 105.711C331.32 104.992 332.555 104.445 334.055 104.07C335.555 103.695 337.32 103.508 339.352 103.508H342.75ZM367.477 93.6406V99.125H352.195V93.6406H367.477ZM355.406 87.3359H363.305V110.727C363.305 111.398 363.383 111.922 363.539 112.297C363.695 112.656 363.961 112.914 364.336 113.07C364.727 113.211 365.242 113.281 365.883 113.281C366.336 113.281 366.711 113.273 367.008 113.258C367.305 113.227 367.586 113.188 367.852 113.141V118.789C367.18 119.008 366.477 119.172 365.742 119.281C365.008 119.406 364.227 119.469 363.398 119.469C361.711 119.469 360.266 119.203 359.062 118.672C357.875 118.141 356.969 117.305 356.344 116.164C355.719 115.023 355.406 113.539 355.406 111.711V87.3359ZM378.961 93.6406V119H371.039V93.6406H378.961ZM370.57 87.1016C370.57 85.9766 370.977 85.0547 371.789 84.3359C372.602 83.6172 373.656 83.2578 374.953 83.2578C376.25 83.2578 377.305 83.6172 378.117 84.3359C378.93 85.0547 379.336 85.9766 379.336 87.1016C379.336 88.2266 378.93 89.1484 378.117 89.8672C377.305 90.5859 376.25 90.9453 374.953 90.9453C373.656 90.9453 372.602 90.5859 371.789 89.8672C370.977 89.1484 370.57 88.2266 370.57 87.1016ZM382.852 106.578V106.086C382.852 104.227 383.117 102.516 383.648 100.953C384.18 99.375 384.961 98.0078 385.992 96.8516C387.023 95.6953 388.297 94.7969 389.812 94.1562C391.328 93.5 393.078 93.1719 395.062 93.1719C397.062 93.1719 398.82 93.5 400.336 94.1562C401.867 94.7969 403.148 95.6953 404.18 96.8516C405.211 98.0078 405.992 99.375 406.523 100.953C407.055 102.516 407.32 104.227 407.32 106.086V106.578C407.32 108.422 407.055 110.133 406.523 111.711C405.992 113.273 405.211 114.641 404.18 115.812C403.148 116.969 401.875 117.867 400.359 118.508C398.844 119.148 397.094 119.469 395.109 119.469C393.125 119.469 391.367 119.148 389.836 118.508C388.305 117.867 387.023 116.969 385.992 115.812C384.961 114.641 384.18 113.273 383.648 111.711C383.117 110.133 382.852 108.422 382.852 106.578ZM390.75 106.086V106.578C390.75 107.531 390.82 108.422 390.961 109.25C391.102 110.078 391.336 110.805 391.664 111.43C391.992 112.039 392.438 112.516 393 112.859C393.562 113.203 394.266 113.375 395.109 113.375C395.938 113.375 396.625 113.203 397.172 112.859C397.734 112.516 398.18 112.039 398.508 111.43C398.836 110.805 399.07 110.078 399.211 109.25C399.352 108.422 399.422 107.531 399.422 106.578V106.086C399.422 105.164 399.352 104.297 399.211 103.484C399.07 102.656 398.836 101.93 398.508 101.305C398.18 100.664 397.734 100.164 397.172 99.8047C396.609 99.4453 395.906 99.2656 395.062 99.2656C394.234 99.2656 393.539 99.4453 392.977 99.8047C392.43 100.164 391.992 100.664 391.664 101.305C391.336 101.93 391.102 102.656 390.961 103.484C390.82 104.297 390.75 105.164 390.75 106.086ZM418.594 99.0547V119H410.695V93.6406H418.102L418.594 99.0547ZM417.656 105.453L415.805 105.5C415.805 103.562 416.039 101.836 416.508 100.32C416.977 98.7891 417.641 97.4922 418.5 96.4297C419.359 95.3672 420.383 94.5625 421.57 94.0156C422.773 93.4531 424.109 93.1719 425.578 93.1719C426.75 93.1719 427.82 93.3438 428.789 93.6875C429.773 94.0312 430.617 94.5859 431.32 95.3516C432.039 96.1172 432.586 97.1328 432.961 98.3984C433.352 99.6484 433.547 101.195 433.547 103.039V119H425.602V103.016C425.602 102 425.461 101.227 425.18 100.695C424.898 100.148 424.492 99.7734 423.961 99.5703C423.43 99.3672 422.781 99.2656 422.016 99.2656C421.203 99.2656 420.516 99.4219 419.953 99.7344C419.391 100.047 418.938 100.484 418.594 101.047C418.266 101.594 418.023 102.242 417.867 102.992C417.727 103.742 417.656 104.562 417.656 105.453Z" fill="black"/>
<path d="M1134 0H1348C1356.28 0 1363 6.71573 1363 15V148C1363 156.284 1356.28 163 1348 163H1134V0Z" fill="#3A76A8"/>
<path d="M1280.07 47.5H1216.93L1214.5 49.9286V113.071L1216.93 115.5H1280.07L1282.5 113.071V49.9286L1280.07 47.5ZM1277.64 110.643H1233.93V100.929H1245.1C1246.56 103.843 1249.96 105.786 1253.36 105.786C1258.7 105.786 1263.07 101.414 1263.07 96.0714C1263.07 90.7286 1258.7 86.3571 1253.36 86.3571C1248.01 86.3571 1243.64 90.7286 1243.64 96.0714H1229.07V110.643H1219.36V52.3571H1229.07V63.5286C1226.16 64.9857 1224.21 68.3857 1224.21 71.7857C1224.21 77.1286 1228.59 81.5 1233.93 81.5C1239.27 81.5 1243.64 77.1286 1243.64 71.7857H1253.36C1253.36 77.1286 1257.73 81.5 1263.07 81.5C1268.41 81.5 1272.79 77.1286 1272.79 71.7857C1272.79 66.4429 1268.41 62.0714 1263.07 62.0714C1259.67 62.0714 1256.27 64.0143 1254.81 66.9286H1242.19C1240.73 64.0143 1237.33 62.0714 1233.93 62.0714V52.3571H1277.64V110.643ZM1248.5 96.0714C1248.5 93.1571 1250.44 91.2143 1253.36 91.2143C1256.27 91.2143 1258.21 93.1571 1258.21 96.0714C1258.21 98.9857 1256.27 100.929 1253.36 100.929C1250.44 100.929 1248.5 98.9857 1248.5 96.0714ZM1233.93 66.9286C1236.84 66.9286 1238.79 68.8714 1238.79 71.7857C1238.79 74.7 1236.84 76.6429 1233.93 76.6429C1231.01 76.6429 1229.07 74.7 1229.07 71.7857C1229.07 68.8714 1231.01 66.9286 1233.93 66.9286ZM1263.07 66.9286C1265.99 66.9286 1267.93 68.8714 1267.93 71.7857C1267.93 74.7 1265.99 76.6429 1263.07 76.6429C1260.16 76.6429 1258.21 74.7 1258.21 71.7857C1258.21 68.8714 1260.16 66.9286 1263.07 66.9286Z" fill="white"/>
</svg>
